M48
; DRILL file KiCad 10.0.0 date 2026-04-18T15:28:20
; FORMAT={-:-/ absolute / metric / decimal}
; #@! TF.CreationDate,2026-04-18T15:28:20+05:00
; #@! TF.GenerationSoftware,Kicad,Pcbnew,10.0.0
; #@! TF.FileFunction,Plated,1,2,PTH
FMAT,2
METRIC
; #@! TA.AperFunction,Plated,PTH,ViaDrill
T1C0.300
; #@! TA.AperFunction,Plated,PTH,ComponentDrill
T2C0.600
; #@! TA.AperFunction,Plated,PTH,ComponentDrill
T3C1.000
%
G90
G05
T1
X122.545Y-110.151
X123.04Y-106.584
X125.385Y-109.533
X125.453Y-113.021
X125.539Y-98.739
X126.165Y-115.557
X133.94Y-97.294
X137.957Y-109.594
T3
X92.44Y-76.85
X92.44Y-94.63
X94.98Y-76.85
X94.98Y-94.63
X97.52Y-76.85
X97.52Y-94.63
X98.02Y-100.95
X100.06Y-76.85
X100.06Y-94.63
X100.56Y-100.95
X102.6Y-76.85
X102.6Y-94.63
X103.1Y-100.95
X105.14Y-76.85
X105.14Y-94.63
X105.64Y-100.95
X107.68Y-76.85
X107.68Y-94.63
X108.18Y-100.95
X110.22Y-76.85
X110.22Y-94.63
X110.72Y-100.95
X112.76Y-76.85
X112.76Y-94.63
X113.26Y-100.95
X115.3Y-76.85
X115.3Y-94.63
X115.8Y-100.95
X117.84Y-76.85
X117.84Y-94.63
X120.38Y-76.85
X120.38Y-94.63
X122.92Y-76.85
X122.92Y-94.63
X125.46Y-76.85
X125.46Y-94.63
X128.0Y-76.85
X128.0Y-94.63
X130.54Y-76.85
X130.54Y-94.63
X133.08Y-76.85
X133.08Y-94.63
X135.62Y-76.85
X135.62Y-94.63
X138.16Y-76.85
X138.16Y-94.63
X140.7Y-76.85
X140.7Y-94.63
T2
G00X120.38Y-111.945
M15
G01X120.38Y-113.045
M16
G05
G00X120.38Y-116.275
M15
G01X120.38Y-117.075
M16
G05
G00X129.02Y-111.945
M15
G01X129.02Y-113.045
M16
G05
G00X129.02Y-116.275
M15
G01X129.02Y-117.075
M16
G05
M30
