%TF.GenerationSoftware,KiCad,Pcbnew,10.0.0*%
%TF.CreationDate,2026-04-18T15:30:32+05:00*%
%TF.ProjectId,real PCB,7265616c-2050-4434-922e-6b696361645f,rev?*%
%TF.SameCoordinates,Original*%
%TF.FileFunction,Legend,Top*%
%TF.FilePolarity,Positive*%
%FSLAX46Y46*%
G04 Gerber Fmt 4.6, Leading zero omitted, Abs format (unit mm)*
G04 Created by KiCad (PCBNEW 10.0.0) date 2026-04-18 15:30:32*
%MOMM*%
%LPD*%
G01*
G04 APERTURE LIST*
%ADD10C,0.150000*%
%ADD11C,0.120000*%
G04 APERTURE END LIST*
D10*
X91666666Y-88804819D02*
X91333333Y-88328628D01*
X91095238Y-88804819D02*
X91095238Y-87804819D01*
X91095238Y-87804819D02*
X91476190Y-87804819D01*
X91476190Y-87804819D02*
X91571428Y-87852438D01*
X91571428Y-87852438D02*
X91619047Y-87900057D01*
X91619047Y-87900057D02*
X91666666Y-87995295D01*
X91666666Y-87995295D02*
X91666666Y-88138152D01*
X91666666Y-88138152D02*
X91619047Y-88233390D01*
X91619047Y-88233390D02*
X91571428Y-88281009D01*
X91571428Y-88281009D02*
X91476190Y-88328628D01*
X91476190Y-88328628D02*
X91095238Y-88328628D01*
X92095238Y-88281009D02*
X92428571Y-88281009D01*
X92571428Y-88804819D02*
X92095238Y-88804819D01*
X92095238Y-88804819D02*
X92095238Y-87804819D01*
X92095238Y-87804819D02*
X92571428Y-87804819D01*
X93333333Y-88281009D02*
X93000000Y-88281009D01*
X93000000Y-88804819D02*
X93000000Y-87804819D01*
X93000000Y-87804819D02*
X93476190Y-87804819D01*
X94000000Y-87804819D02*
X94000000Y-88042914D01*
X93761905Y-87947676D02*
X94000000Y-88042914D01*
X94000000Y-88042914D02*
X94238095Y-87947676D01*
X93857143Y-88233390D02*
X94000000Y-88042914D01*
X94000000Y-88042914D02*
X94142857Y-88233390D01*
X94761905Y-87804819D02*
X94761905Y-88042914D01*
X94523810Y-87947676D02*
X94761905Y-88042914D01*
X94761905Y-88042914D02*
X95000000Y-87947676D01*
X94619048Y-88233390D02*
X94761905Y-88042914D01*
X94761905Y-88042914D02*
X94904762Y-88233390D01*
X91666666Y-77404819D02*
X91333333Y-76928628D01*
X91095238Y-77404819D02*
X91095238Y-76404819D01*
X91095238Y-76404819D02*
X91476190Y-76404819D01*
X91476190Y-76404819D02*
X91571428Y-76452438D01*
X91571428Y-76452438D02*
X91619047Y-76500057D01*
X91619047Y-76500057D02*
X91666666Y-76595295D01*
X91666666Y-76595295D02*
X91666666Y-76738152D01*
X91666666Y-76738152D02*
X91619047Y-76833390D01*
X91619047Y-76833390D02*
X91571428Y-76881009D01*
X91571428Y-76881009D02*
X91476190Y-76928628D01*
X91476190Y-76928628D02*
X91095238Y-76928628D01*
X92095238Y-76881009D02*
X92428571Y-76881009D01*
X92571428Y-77404819D02*
X92095238Y-77404819D01*
X92095238Y-77404819D02*
X92095238Y-76404819D01*
X92095238Y-76404819D02*
X92571428Y-76404819D01*
X93333333Y-76881009D02*
X93000000Y-76881009D01*
X93000000Y-77404819D02*
X93000000Y-76404819D01*
X93000000Y-76404819D02*
X93476190Y-76404819D01*
X94000000Y-76404819D02*
X94000000Y-76642914D01*
X93761905Y-76547676D02*
X94000000Y-76642914D01*
X94000000Y-76642914D02*
X94238095Y-76547676D01*
X93857143Y-76833390D02*
X94000000Y-76642914D01*
X94000000Y-76642914D02*
X94142857Y-76833390D01*
X94761905Y-76404819D02*
X94761905Y-76642914D01*
X94523810Y-76547676D02*
X94761905Y-76642914D01*
X94761905Y-76642914D02*
X95000000Y-76547676D01*
X94619048Y-76833390D02*
X94761905Y-76642914D01*
X94761905Y-76642914D02*
X94904762Y-76833390D01*
X138666666Y-77404819D02*
X138333333Y-76928628D01*
X138095238Y-77404819D02*
X138095238Y-76404819D01*
X138095238Y-76404819D02*
X138476190Y-76404819D01*
X138476190Y-76404819D02*
X138571428Y-76452438D01*
X138571428Y-76452438D02*
X138619047Y-76500057D01*
X138619047Y-76500057D02*
X138666666Y-76595295D01*
X138666666Y-76595295D02*
X138666666Y-76738152D01*
X138666666Y-76738152D02*
X138619047Y-76833390D01*
X138619047Y-76833390D02*
X138571428Y-76881009D01*
X138571428Y-76881009D02*
X138476190Y-76928628D01*
X138476190Y-76928628D02*
X138095238Y-76928628D01*
X139095238Y-76881009D02*
X139428571Y-76881009D01*
X139571428Y-77404819D02*
X139095238Y-77404819D01*
X139095238Y-77404819D02*
X139095238Y-76404819D01*
X139095238Y-76404819D02*
X139571428Y-76404819D01*
X140333333Y-76881009D02*
X140000000Y-76881009D01*
X140000000Y-77404819D02*
X140000000Y-76404819D01*
X140000000Y-76404819D02*
X140476190Y-76404819D01*
X141000000Y-76404819D02*
X141000000Y-76642914D01*
X140761905Y-76547676D02*
X141000000Y-76642914D01*
X141000000Y-76642914D02*
X141238095Y-76547676D01*
X140857143Y-76833390D02*
X141000000Y-76642914D01*
X141000000Y-76642914D02*
X141142857Y-76833390D01*
X141761905Y-76404819D02*
X141761905Y-76642914D01*
X141523810Y-76547676D02*
X141761905Y-76642914D01*
X141761905Y-76642914D02*
X142000000Y-76547676D01*
X141619048Y-76833390D02*
X141761905Y-76642914D01*
X141761905Y-76642914D02*
X141904762Y-76833390D01*
X138666666Y-88804819D02*
X138333333Y-88328628D01*
X138095238Y-88804819D02*
X138095238Y-87804819D01*
X138095238Y-87804819D02*
X138476190Y-87804819D01*
X138476190Y-87804819D02*
X138571428Y-87852438D01*
X138571428Y-87852438D02*
X138619047Y-87900057D01*
X138619047Y-87900057D02*
X138666666Y-87995295D01*
X138666666Y-87995295D02*
X138666666Y-88138152D01*
X138666666Y-88138152D02*
X138619047Y-88233390D01*
X138619047Y-88233390D02*
X138571428Y-88281009D01*
X138571428Y-88281009D02*
X138476190Y-88328628D01*
X138476190Y-88328628D02*
X138095238Y-88328628D01*
X139095238Y-88281009D02*
X139428571Y-88281009D01*
X139571428Y-88804819D02*
X139095238Y-88804819D01*
X139095238Y-88804819D02*
X139095238Y-87804819D01*
X139095238Y-87804819D02*
X139571428Y-87804819D01*
X140333333Y-88281009D02*
X140000000Y-88281009D01*
X140000000Y-88804819D02*
X140000000Y-87804819D01*
X140000000Y-87804819D02*
X140476190Y-87804819D01*
X141000000Y-87804819D02*
X141000000Y-88042914D01*
X140761905Y-87947676D02*
X141000000Y-88042914D01*
X141000000Y-88042914D02*
X141238095Y-87947676D01*
X140857143Y-88233390D02*
X141000000Y-88042914D01*
X141000000Y-88042914D02*
X141142857Y-88233390D01*
X141761905Y-87804819D02*
X141761905Y-88042914D01*
X141523810Y-87947676D02*
X141761905Y-88042914D01*
X141761905Y-88042914D02*
X142000000Y-87947676D01*
X141619048Y-88233390D02*
X141761905Y-88042914D01*
X141761905Y-88042914D02*
X141904762Y-88233390D01*
X128338333Y-99579819D02*
X128005000Y-99103628D01*
X127766905Y-99579819D02*
X127766905Y-98579819D01*
X127766905Y-98579819D02*
X128147857Y-98579819D01*
X128147857Y-98579819D02*
X128243095Y-98627438D01*
X128243095Y-98627438D02*
X128290714Y-98675057D01*
X128290714Y-98675057D02*
X128338333Y-98770295D01*
X128338333Y-98770295D02*
X128338333Y-98913152D01*
X128338333Y-98913152D02*
X128290714Y-99008390D01*
X128290714Y-99008390D02*
X128243095Y-99056009D01*
X128243095Y-99056009D02*
X128147857Y-99103628D01*
X128147857Y-99103628D02*
X127766905Y-99103628D01*
X128671667Y-98579819D02*
X129290714Y-98579819D01*
X129290714Y-98579819D02*
X128957381Y-98960771D01*
X128957381Y-98960771D02*
X129100238Y-98960771D01*
X129100238Y-98960771D02*
X129195476Y-99008390D01*
X129195476Y-99008390D02*
X129243095Y-99056009D01*
X129243095Y-99056009D02*
X129290714Y-99151247D01*
X129290714Y-99151247D02*
X129290714Y-99389342D01*
X129290714Y-99389342D02*
X129243095Y-99484580D01*
X129243095Y-99484580D02*
X129195476Y-99532200D01*
X129195476Y-99532200D02*
X129100238Y-99579819D01*
X129100238Y-99579819D02*
X128814524Y-99579819D01*
X128814524Y-99579819D02*
X128719286Y-99532200D01*
X128719286Y-99532200D02*
X128671667Y-99484580D01*
X108420833Y-114154819D02*
X108087500Y-113678628D01*
X107849405Y-114154819D02*
X107849405Y-113154819D01*
X107849405Y-113154819D02*
X108230357Y-113154819D01*
X108230357Y-113154819D02*
X108325595Y-113202438D01*
X108325595Y-113202438D02*
X108373214Y-113250057D01*
X108373214Y-113250057D02*
X108420833Y-113345295D01*
X108420833Y-113345295D02*
X108420833Y-113488152D01*
X108420833Y-113488152D02*
X108373214Y-113583390D01*
X108373214Y-113583390D02*
X108325595Y-113631009D01*
X108325595Y-113631009D02*
X108230357Y-113678628D01*
X108230357Y-113678628D02*
X107849405Y-113678628D01*
X109325595Y-113154819D02*
X108849405Y-113154819D01*
X108849405Y-113154819D02*
X108801786Y-113631009D01*
X108801786Y-113631009D02*
X108849405Y-113583390D01*
X108849405Y-113583390D02*
X108944643Y-113535771D01*
X108944643Y-113535771D02*
X109182738Y-113535771D01*
X109182738Y-113535771D02*
X109277976Y-113583390D01*
X109277976Y-113583390D02*
X109325595Y-113631009D01*
X109325595Y-113631009D02*
X109373214Y-113726247D01*
X109373214Y-113726247D02*
X109373214Y-113964342D01*
X109373214Y-113964342D02*
X109325595Y-114059580D01*
X109325595Y-114059580D02*
X109277976Y-114107200D01*
X109277976Y-114107200D02*
X109182738Y-114154819D01*
X109182738Y-114154819D02*
X108944643Y-114154819D01*
X108944643Y-114154819D02*
X108849405Y-114107200D01*
X108849405Y-114107200D02*
X108801786Y-114059580D01*
X108420833Y-108554819D02*
X108087500Y-108078628D01*
X107849405Y-108554819D02*
X107849405Y-107554819D01*
X107849405Y-107554819D02*
X108230357Y-107554819D01*
X108230357Y-107554819D02*
X108325595Y-107602438D01*
X108325595Y-107602438D02*
X108373214Y-107650057D01*
X108373214Y-107650057D02*
X108420833Y-107745295D01*
X108420833Y-107745295D02*
X108420833Y-107888152D01*
X108420833Y-107888152D02*
X108373214Y-107983390D01*
X108373214Y-107983390D02*
X108325595Y-108031009D01*
X108325595Y-108031009D02*
X108230357Y-108078628D01*
X108230357Y-108078628D02*
X107849405Y-108078628D01*
X109277976Y-107888152D02*
X109277976Y-108554819D01*
X109039881Y-107507200D02*
X108801786Y-108221485D01*
X108801786Y-108221485D02*
X109420833Y-108221485D01*
X145483333Y-93529580D02*
X145435714Y-93577200D01*
X145435714Y-93577200D02*
X145292857Y-93624819D01*
X145292857Y-93624819D02*
X145197619Y-93624819D01*
X145197619Y-93624819D02*
X145054762Y-93577200D01*
X145054762Y-93577200D02*
X144959524Y-93481961D01*
X144959524Y-93481961D02*
X144911905Y-93386723D01*
X144911905Y-93386723D02*
X144864286Y-93196247D01*
X144864286Y-93196247D02*
X144864286Y-93053390D01*
X144864286Y-93053390D02*
X144911905Y-92862914D01*
X144911905Y-92862914D02*
X144959524Y-92767676D01*
X144959524Y-92767676D02*
X145054762Y-92672438D01*
X145054762Y-92672438D02*
X145197619Y-92624819D01*
X145197619Y-92624819D02*
X145292857Y-92624819D01*
X145292857Y-92624819D02*
X145435714Y-92672438D01*
X145435714Y-92672438D02*
X145483333Y-92720057D01*
X146435714Y-93624819D02*
X145864286Y-93624819D01*
X146150000Y-93624819D02*
X146150000Y-92624819D01*
X146150000Y-92624819D02*
X146054762Y-92767676D01*
X146054762Y-92767676D02*
X145959524Y-92862914D01*
X145959524Y-92862914D02*
X145864286Y-92910533D01*
X91635895Y-97776660D02*
X91635895Y-98252850D01*
X91350180Y-97681422D02*
X92350180Y-98014755D01*
X92350180Y-98014755D02*
X91350180Y-98348088D01*
X91350180Y-99205231D02*
X91350180Y-98633803D01*
X91350180Y-98919517D02*
X92350180Y-98919517D01*
X92350180Y-98919517D02*
X92207323Y-98824279D01*
X92207323Y-98824279D02*
X92112085Y-98729041D01*
X92112085Y-98729041D02*
X92064466Y-98633803D01*
X137366667Y-108957200D02*
X137509524Y-109004819D01*
X137509524Y-109004819D02*
X137747619Y-109004819D01*
X137747619Y-109004819D02*
X137842857Y-108957200D01*
X137842857Y-108957200D02*
X137890476Y-108909580D01*
X137890476Y-108909580D02*
X137938095Y-108814342D01*
X137938095Y-108814342D02*
X137938095Y-108719104D01*
X137938095Y-108719104D02*
X137890476Y-108623866D01*
X137890476Y-108623866D02*
X137842857Y-108576247D01*
X137842857Y-108576247D02*
X137747619Y-108528628D01*
X137747619Y-108528628D02*
X137557143Y-108481009D01*
X137557143Y-108481009D02*
X137461905Y-108433390D01*
X137461905Y-108433390D02*
X137414286Y-108385771D01*
X137414286Y-108385771D02*
X137366667Y-108290533D01*
X137366667Y-108290533D02*
X137366667Y-108195295D01*
X137366667Y-108195295D02*
X137414286Y-108100057D01*
X137414286Y-108100057D02*
X137461905Y-108052438D01*
X137461905Y-108052438D02*
X137557143Y-108004819D01*
X137557143Y-108004819D02*
X137795238Y-108004819D01*
X137795238Y-108004819D02*
X137938095Y-108052438D01*
X138271429Y-108004819D02*
X138509524Y-109004819D01*
X138509524Y-109004819D02*
X138700000Y-108290533D01*
X138700000Y-108290533D02*
X138890476Y-109004819D01*
X138890476Y-109004819D02*
X139128572Y-108004819D01*
X140033333Y-109004819D02*
X139461905Y-109004819D01*
X139747619Y-109004819D02*
X139747619Y-108004819D01*
X139747619Y-108004819D02*
X139652381Y-108147676D01*
X139652381Y-108147676D02*
X139557143Y-108242914D01*
X139557143Y-108242914D02*
X139461905Y-108290533D01*
X137366666Y-110845819D02*
X137033333Y-110369628D01*
X136795238Y-110845819D02*
X136795238Y-109845819D01*
X136795238Y-109845819D02*
X137176190Y-109845819D01*
X137176190Y-109845819D02*
X137271428Y-109893438D01*
X137271428Y-109893438D02*
X137319047Y-109941057D01*
X137319047Y-109941057D02*
X137366666Y-110036295D01*
X137366666Y-110036295D02*
X137366666Y-110179152D01*
X137366666Y-110179152D02*
X137319047Y-110274390D01*
X137319047Y-110274390D02*
X137271428Y-110322009D01*
X137271428Y-110322009D02*
X137176190Y-110369628D01*
X137176190Y-110369628D02*
X136795238Y-110369628D01*
X137795238Y-110322009D02*
X138128571Y-110322009D01*
X138271428Y-110845819D02*
X137795238Y-110845819D01*
X137795238Y-110845819D02*
X137795238Y-109845819D01*
X137795238Y-109845819D02*
X138271428Y-109845819D01*
X139033333Y-110322009D02*
X138700000Y-110322009D01*
X138700000Y-110845819D02*
X138700000Y-109845819D01*
X138700000Y-109845819D02*
X139176190Y-109845819D01*
X139700000Y-109845819D02*
X139700000Y-110083914D01*
X139461905Y-109988676D02*
X139700000Y-110083914D01*
X139700000Y-110083914D02*
X139938095Y-109988676D01*
X139557143Y-110274390D02*
X139700000Y-110083914D01*
X139700000Y-110083914D02*
X139842857Y-110274390D01*
X140461905Y-109845819D02*
X140461905Y-110083914D01*
X140223810Y-109988676D02*
X140461905Y-110083914D01*
X140461905Y-110083914D02*
X140700000Y-109988676D01*
X140319048Y-110274390D02*
X140461905Y-110083914D01*
X140461905Y-110083914D02*
X140604762Y-110274390D01*
X114033333Y-114759819D02*
X113700000Y-114283628D01*
X113461905Y-114759819D02*
X113461905Y-113759819D01*
X113461905Y-113759819D02*
X113842857Y-113759819D01*
X113842857Y-113759819D02*
X113938095Y-113807438D01*
X113938095Y-113807438D02*
X113985714Y-113855057D01*
X113985714Y-113855057D02*
X114033333Y-113950295D01*
X114033333Y-113950295D02*
X114033333Y-114093152D01*
X114033333Y-114093152D02*
X113985714Y-114188390D01*
X113985714Y-114188390D02*
X113938095Y-114236009D01*
X113938095Y-114236009D02*
X113842857Y-114283628D01*
X113842857Y-114283628D02*
X113461905Y-114283628D01*
X114414286Y-113855057D02*
X114461905Y-113807438D01*
X114461905Y-113807438D02*
X114557143Y-113759819D01*
X114557143Y-113759819D02*
X114795238Y-113759819D01*
X114795238Y-113759819D02*
X114890476Y-113807438D01*
X114890476Y-113807438D02*
X114938095Y-113855057D01*
X114938095Y-113855057D02*
X114985714Y-113950295D01*
X114985714Y-113950295D02*
X114985714Y-114045533D01*
X114985714Y-114045533D02*
X114938095Y-114188390D01*
X114938095Y-114188390D02*
X114366667Y-114759819D01*
X114366667Y-114759819D02*
X114985714Y-114759819D01*
X123766666Y-108404819D02*
X123766666Y-109119104D01*
X123766666Y-109119104D02*
X123719047Y-109261961D01*
X123719047Y-109261961D02*
X123623809Y-109357200D01*
X123623809Y-109357200D02*
X123480952Y-109404819D01*
X123480952Y-109404819D02*
X123385714Y-109404819D01*
X124195238Y-108500057D02*
X124242857Y-108452438D01*
X124242857Y-108452438D02*
X124338095Y-108404819D01*
X124338095Y-108404819D02*
X124576190Y-108404819D01*
X124576190Y-108404819D02*
X124671428Y-108452438D01*
X124671428Y-108452438D02*
X124719047Y-108500057D01*
X124719047Y-108500057D02*
X124766666Y-108595295D01*
X124766666Y-108595295D02*
X124766666Y-108690533D01*
X124766666Y-108690533D02*
X124719047Y-108833390D01*
X124719047Y-108833390D02*
X124147619Y-109404819D01*
X124147619Y-109404819D02*
X124766666Y-109404819D01*
X151483333Y-93529580D02*
X151435714Y-93577200D01*
X151435714Y-93577200D02*
X151292857Y-93624819D01*
X151292857Y-93624819D02*
X151197619Y-93624819D01*
X151197619Y-93624819D02*
X151054762Y-93577200D01*
X151054762Y-93577200D02*
X150959524Y-93481961D01*
X150959524Y-93481961D02*
X150911905Y-93386723D01*
X150911905Y-93386723D02*
X150864286Y-93196247D01*
X150864286Y-93196247D02*
X150864286Y-93053390D01*
X150864286Y-93053390D02*
X150911905Y-92862914D01*
X150911905Y-92862914D02*
X150959524Y-92767676D01*
X150959524Y-92767676D02*
X151054762Y-92672438D01*
X151054762Y-92672438D02*
X151197619Y-92624819D01*
X151197619Y-92624819D02*
X151292857Y-92624819D01*
X151292857Y-92624819D02*
X151435714Y-92672438D01*
X151435714Y-92672438D02*
X151483333Y-92720057D01*
X151864286Y-92720057D02*
X151911905Y-92672438D01*
X151911905Y-92672438D02*
X152007143Y-92624819D01*
X152007143Y-92624819D02*
X152245238Y-92624819D01*
X152245238Y-92624819D02*
X152340476Y-92672438D01*
X152340476Y-92672438D02*
X152388095Y-92720057D01*
X152388095Y-92720057D02*
X152435714Y-92815295D01*
X152435714Y-92815295D02*
X152435714Y-92910533D01*
X152435714Y-92910533D02*
X152388095Y-93053390D01*
X152388095Y-93053390D02*
X151816667Y-93624819D01*
X151816667Y-93624819D02*
X152435714Y-93624819D01*
X95094819Y-101283333D02*
X95809104Y-101283333D01*
X95809104Y-101283333D02*
X95951961Y-101330952D01*
X95951961Y-101330952D02*
X96047200Y-101426190D01*
X96047200Y-101426190D02*
X96094819Y-101569047D01*
X96094819Y-101569047D02*
X96094819Y-101664285D01*
X96094819Y-100283333D02*
X96094819Y-100854761D01*
X96094819Y-100569047D02*
X95094819Y-100569047D01*
X95094819Y-100569047D02*
X95237676Y-100664285D01*
X95237676Y-100664285D02*
X95332914Y-100759523D01*
X95332914Y-100759523D02*
X95380533Y-100854761D01*
X114120833Y-108759819D02*
X113787500Y-108283628D01*
X113549405Y-108759819D02*
X113549405Y-107759819D01*
X113549405Y-107759819D02*
X113930357Y-107759819D01*
X113930357Y-107759819D02*
X114025595Y-107807438D01*
X114025595Y-107807438D02*
X114073214Y-107855057D01*
X114073214Y-107855057D02*
X114120833Y-107950295D01*
X114120833Y-107950295D02*
X114120833Y-108093152D01*
X114120833Y-108093152D02*
X114073214Y-108188390D01*
X114073214Y-108188390D02*
X114025595Y-108236009D01*
X114025595Y-108236009D02*
X113930357Y-108283628D01*
X113930357Y-108283628D02*
X113549405Y-108283628D01*
X115073214Y-108759819D02*
X114501786Y-108759819D01*
X114787500Y-108759819D02*
X114787500Y-107759819D01*
X114787500Y-107759819D02*
X114692262Y-107902676D01*
X114692262Y-107902676D02*
X114597024Y-107997914D01*
X114597024Y-107997914D02*
X114501786Y-108045533D01*
%TO.C,R3*%
D11*
X128277936Y-100040000D02*
X128732064Y-100040000D01*
X128277936Y-101510000D02*
X128732064Y-101510000D01*
%TO.C,R5*%
X108360436Y-116085000D02*
X108814564Y-116085000D01*
X108360436Y-114615000D02*
X108814564Y-114615000D01*
%TO.C,R4*%
X108360436Y-111285000D02*
X108814564Y-111285000D01*
X108360436Y-109815000D02*
X108814564Y-109815000D01*
%TO.C,C1*%
X145388748Y-94115000D02*
X145911252Y-94115000D01*
X145388748Y-95585000D02*
X145911252Y-95585000D01*
%TO.C,A1*%
X139640000Y-75130000D02*
X139640000Y-74650000D01*
X139640000Y-75130000D02*
X139220000Y-75130000D01*
X137100000Y-75130000D02*
X136680000Y-75130000D01*
X134560000Y-75130000D02*
X134140000Y-75130000D01*
X132020000Y-75130000D02*
X131600000Y-75130000D01*
X129480000Y-75130000D02*
X129060000Y-75130000D01*
X126940000Y-75130000D02*
X126520000Y-75130000D01*
X124400000Y-75130000D02*
X123980000Y-75130000D01*
X121860000Y-75130000D02*
X121440000Y-75130000D01*
X119320000Y-75130000D02*
X118900000Y-75130000D01*
X116780000Y-75130000D02*
X116360000Y-75130000D01*
X114240000Y-75130000D02*
X113820000Y-75130000D01*
X111700000Y-75130000D02*
X111280000Y-75130000D01*
X109160000Y-75130000D02*
X108740000Y-75130000D01*
X106620000Y-75130000D02*
X106200000Y-75130000D01*
X104080000Y-75130000D02*
X103660000Y-75130000D01*
X101540000Y-75130000D02*
X101120000Y-75130000D01*
X99000000Y-75130000D02*
X98580000Y-75130000D01*
X96460000Y-75130000D02*
X96040000Y-75130000D01*
X93920000Y-75130000D02*
X93500000Y-75130000D01*
X141760000Y-75160324D02*
X141760000Y-74650000D01*
X141759937Y-75470000D02*
X142117000Y-75470000D01*
X139640000Y-75470000D02*
X139220000Y-75470000D01*
X137100000Y-75470000D02*
X136680000Y-75470000D01*
X134560000Y-75470000D02*
X134140000Y-75470000D01*
X132020000Y-75470000D02*
X131600000Y-75470000D01*
X129480000Y-75470000D02*
X129060000Y-75470000D01*
X126940000Y-75470000D02*
X126520000Y-75470000D01*
X124400000Y-75470000D02*
X123980000Y-75470000D01*
X121860000Y-75470000D02*
X121440000Y-75470000D01*
X119320000Y-75470000D02*
X118900000Y-75470000D01*
X116780000Y-75470000D02*
X116360000Y-75470000D01*
X114240000Y-75470000D02*
X113820000Y-75470000D01*
X111700000Y-75470000D02*
X111280000Y-75470000D01*
X109160000Y-75470000D02*
X108740000Y-75470000D01*
X106620000Y-75470000D02*
X106200000Y-75470000D01*
X104080000Y-75470000D02*
X103660000Y-75470000D01*
X101540000Y-75470000D02*
X101120000Y-75470000D01*
X99000000Y-75470000D02*
X98580000Y-75470000D01*
X96460000Y-75470000D02*
X96040000Y-75470000D01*
X93920000Y-75470000D02*
X93500000Y-75470000D01*
X91380063Y-75470000D02*
X91023000Y-75470000D01*
X142180000Y-75740000D02*
X142180000Y-78230000D01*
X90960000Y-75740000D02*
X90960000Y-79577939D01*
X142180000Y-78230000D02*
X141266480Y-78230000D01*
X142180000Y-78230000D02*
X142180000Y-79577940D01*
X138873520Y-78230000D02*
X94266480Y-78230000D01*
X91873520Y-78230000D02*
X90960000Y-78230000D01*
X142180000Y-80502061D02*
X142180000Y-81505000D01*
X142180000Y-81505000D02*
X142180000Y-89975000D01*
X142180000Y-81840000D02*
X141264000Y-81840000D01*
X138876000Y-81840000D02*
X137660000Y-81840000D01*
X137660000Y-81840000D02*
X137660000Y-82136090D01*
X90960000Y-82140000D02*
X90960000Y-80502061D01*
X137660000Y-84493910D02*
X137660000Y-86986090D01*
X90960000Y-89340000D02*
X90960000Y-82140000D01*
X137660000Y-89343910D02*
X137660000Y-89640000D01*
X142180000Y-89640000D02*
X141264000Y-89640000D01*
X138876000Y-89640000D02*
X137660000Y-89640000D01*
X142180000Y-89975000D02*
X142180000Y-90977939D01*
X90960000Y-90977939D02*
X90960000Y-89340000D01*
X142180000Y-91902061D02*
X142180000Y-93250000D01*
X90960000Y-91902061D02*
X90960000Y-95740000D01*
X142180000Y-93250000D02*
X141266480Y-93250000D01*
X138873520Y-93250000D02*
X94266480Y-93250000D01*
X91873520Y-93250000D02*
X90960000Y-93250000D01*
X142180000Y-95740000D02*
X142180000Y-93250000D01*
X141759937Y-96010000D02*
X142117000Y-96010000D01*
X139640000Y-96010000D02*
X139220000Y-96010000D01*
X137100000Y-96010000D02*
X136680000Y-96010000D01*
X134560000Y-96010000D02*
X134140000Y-96010000D01*
X132020000Y-96010000D02*
X131600000Y-96010000D01*
X129480000Y-96010000D02*
X129060000Y-96010000D01*
X126940000Y-96010000D02*
X126520000Y-96010000D01*
X124400000Y-96010000D02*
X123980000Y-96010000D01*
X121860000Y-96010000D02*
X121440000Y-96010000D01*
X119320000Y-96010000D02*
X118900000Y-96010000D01*
X116780000Y-96010000D02*
X116360000Y-96010000D01*
X114240000Y-96010000D02*
X113820000Y-96010000D01*
X111700000Y-96010000D02*
X111280000Y-96010000D01*
X109160000Y-96010000D02*
X108740000Y-96010000D01*
X106620000Y-96010000D02*
X106200000Y-96010000D01*
X104080000Y-96010000D02*
X103660000Y-96010000D01*
X101540000Y-96010000D02*
X101120000Y-96010000D01*
X99000000Y-96010000D02*
X98580000Y-96010000D01*
X96460000Y-96010000D02*
X96040000Y-96010000D01*
X93920000Y-96010000D02*
X93500000Y-96010000D01*
X91380063Y-96010000D02*
X91023000Y-96010000D01*
X139640000Y-96350000D02*
X139220000Y-96350000D01*
X137100000Y-96350000D02*
X136680000Y-96350000D01*
X134560000Y-96350000D02*
X134140000Y-96350000D01*
X132020000Y-96350000D02*
X131600000Y-96350000D01*
X129480000Y-96350000D02*
X129060000Y-96350000D01*
X126940000Y-96350000D02*
X126520000Y-96350000D01*
X124400000Y-96350000D02*
X123980000Y-96350000D01*
X121860000Y-96350000D02*
X121440000Y-96350000D01*
X119320000Y-96350000D02*
X118900000Y-96350000D01*
X116780000Y-96350000D02*
X116360000Y-96350000D01*
X114240000Y-96350000D02*
X113820000Y-96350000D01*
X111700000Y-96350000D02*
X111280000Y-96350000D01*
X109160000Y-96350000D02*
X108740000Y-96350000D01*
X106620000Y-96350000D02*
X106200000Y-96350000D01*
X104080000Y-96350000D02*
X103660000Y-96350000D01*
X101540000Y-96350000D02*
X101120000Y-96350000D01*
X99000000Y-96350000D02*
X98580000Y-96350000D01*
X96460000Y-96350000D02*
X96040000Y-96350000D01*
X93920000Y-96350000D02*
X93500000Y-96350000D01*
X141760000Y-75160324D02*
G75*
G02*
X142180000Y-75740000I-190051J-579692D01*
G01*
X90960000Y-75740000D02*
G75*
G02*
X91380063Y-75160324I610002J-1D01*
G01*
X142180000Y-95740000D02*
G75*
G02*
X141759937Y-96319676I-610000J0D01*
G01*
X91380063Y-96319676D02*
G75*
G02*
X90959931Y-95740000I189837J579676D01*
G01*
%TO.C,SW1*%
X135550000Y-112474000D02*
X136700000Y-111305000D01*
X135550000Y-113155000D02*
X135550000Y-112474000D01*
X135550000Y-115755000D02*
X135550000Y-116455000D01*
X135550000Y-116455000D02*
X136700000Y-117605000D01*
X136700000Y-111305000D02*
X140700000Y-111305000D01*
X136700000Y-117605000D02*
X140700000Y-117605000D01*
X140700000Y-111305000D02*
X141850000Y-112455000D01*
X140700000Y-117605000D02*
X141850000Y-116455000D01*
X141850000Y-112455000D02*
X141850000Y-113155000D01*
X141850000Y-116455000D02*
X141850000Y-115755000D01*
%TO.C,R2*%
X113972936Y-115220000D02*
X114427064Y-115220000D01*
X113972936Y-116690000D02*
X114427064Y-116690000D01*
%TO.C,J2*%
X120030000Y-115500000D02*
X120030000Y-113800000D01*
X129370000Y-115500000D02*
X129370000Y-113800000D01*
%TO.C,C2*%
X151388748Y-94115000D02*
X151911252Y-94115000D01*
X151388748Y-95585000D02*
X151911252Y-95585000D01*
%TO.C,J1*%
X96640000Y-102330000D02*
X96640000Y-100950000D01*
X98020000Y-102330000D02*
X96640000Y-102330000D01*
X99290000Y-102330000D02*
X117180000Y-102330000D01*
X99290000Y-102330000D02*
X99290000Y-99570000D01*
X117180000Y-102330000D02*
X117180000Y-99570000D01*
X99290000Y-99570000D02*
X117180000Y-99570000D01*
%TO.C,R1*%
X114060436Y-109220000D02*
X114514564Y-109220000D01*
X114060436Y-110690000D02*
X114514564Y-110690000D01*
%TD*%
M02*
