%TF.GenerationSoftware,KiCad,Pcbnew,10.0.0*%
%TF.CreationDate,2026-04-18T15:30:32+05:00*%
%TF.ProjectId,real PCB,7265616c-2050-4434-922e-6b696361645f,rev?*%
%TF.SameCoordinates,Original*%
%TF.FileFunction,Soldermask,Top*%
%TF.FilePolarity,Negative*%
%FSLAX46Y46*%
G04 Gerber Fmt 4.6, Leading zero omitted, Abs format (unit mm)*
G04 Created by KiCad (PCBNEW 10.0.0) date 2026-04-18 15:30:32*
%MOMM*%
%LPD*%
G01*
G04 APERTURE LIST*
G04 Aperture macros list*
%AMRoundRect*
0 Rectangle with rounded corners*
0 $1 Rounding radius*
0 $2 $3 $4 $5 $6 $7 $8 $9 X,Y pos of 4 corners*
0 Add a 4 corners polygon primitive as box body*
4,1,4,$2,$3,$4,$5,$6,$7,$8,$9,$2,$3,0*
0 Add four circle primitives for the rounded corners*
1,1,$1+$1,$2,$3*
1,1,$1+$1,$4,$5*
1,1,$1+$1,$6,$7*
1,1,$1+$1,$8,$9*
0 Add four rect primitives between the rounded corners*
20,1,$1+$1,$2,$3,$4,$5,0*
20,1,$1+$1,$4,$5,$6,$7,0*
20,1,$1+$1,$6,$7,$8,$9,0*
20,1,$1+$1,$8,$9,$2,$3,0*%
%AMFreePoly0*
4,1,37,0.800000,0.796148,0.878414,0.796148,1.032228,0.765552,1.177117,0.705537,1.307515,0.618408,1.418408,0.507515,1.505537,0.377117,1.565552,0.232228,1.596148,0.078414,1.596148,-0.078414,1.565552,-0.232228,1.505537,-0.377117,1.418408,-0.507515,1.307515,-0.618408,1.177117,-0.705537,1.032228,-0.765552,0.878414,-0.796148,0.800000,-0.796148,0.800000,-0.800000,-1.400000,-0.800000,
-1.403843,-0.796157,-1.439018,-0.796157,-1.511114,-0.766294,-1.566294,-0.711114,-1.596157,-0.639018,-1.596157,-0.603843,-1.600000,-0.600000,-1.600000,0.600000,-1.596157,0.603843,-1.596157,0.639018,-1.566294,0.711114,-1.511114,0.766294,-1.439018,0.796157,-1.403843,0.796157,-1.400000,0.800000,0.800000,0.800000,0.800000,0.796148,0.800000,0.796148,$1*%
%AMFreePoly1*
4,1,37,1.403843,0.796157,1.439018,0.796157,1.511114,0.766294,1.566294,0.711114,1.596157,0.639018,1.596157,0.603843,1.600000,0.600000,1.600000,-0.600000,1.596157,-0.603843,1.596157,-0.639018,1.566294,-0.711114,1.511114,-0.766294,1.439018,-0.796157,1.403843,-0.796157,1.400000,-0.800000,-0.800000,-0.800000,-0.800000,-0.796148,-0.878414,-0.796148,-1.032228,-0.765552,-1.177117,-0.705537,
-1.307515,-0.618408,-1.418408,-0.507515,-1.505537,-0.377117,-1.565552,-0.232228,-1.596148,-0.078414,-1.596148,0.078414,-1.565552,0.232228,-1.505537,0.377117,-1.418408,0.507515,-1.307515,0.618408,-1.177117,0.705537,-1.032228,0.765552,-0.878414,0.796148,-0.800000,0.796148,-0.800000,0.800000,1.400000,0.800000,1.403843,0.796157,1.403843,0.796157,$1*%
%AMFreePoly2*
4,1,37,0.603843,0.796157,0.639018,0.796157,0.711114,0.766294,0.766294,0.711114,0.796157,0.639018,0.796157,0.603843,0.800000,0.600000,0.800000,-0.600000,0.796157,-0.603843,0.796157,-0.639018,0.766294,-0.711114,0.711114,-0.766294,0.639018,-0.796157,0.603843,-0.796157,0.600000,-0.800000,0.000000,-0.800000,0.000000,-0.796148,-0.078414,-0.796148,-0.232228,-0.765552,-0.377117,-0.705537,
-0.507515,-0.618408,-0.618408,-0.507515,-0.705537,-0.377117,-0.765552,-0.232228,-0.796148,-0.078414,-0.796148,0.078414,-0.765552,0.232228,-0.705537,0.377117,-0.618408,0.507515,-0.507515,0.618408,-0.377117,0.705537,-0.232228,0.765552,-0.078414,0.796148,0.000000,0.796148,0.000000,0.800000,0.600000,0.800000,0.603843,0.796157,0.603843,0.796157,$1*%
%AMFreePoly3*
4,1,37,0.000000,0.796148,0.078414,0.796148,0.232228,0.765552,0.377117,0.705537,0.507515,0.618408,0.618408,0.507515,0.705537,0.377117,0.765552,0.232228,0.796148,0.078414,0.796148,-0.078414,0.765552,-0.232228,0.705537,-0.377117,0.618408,-0.507515,0.507515,-0.618408,0.377117,-0.705537,0.232228,-0.765552,0.078414,-0.796148,0.000000,-0.796148,0.000000,-0.800000,-0.600000,-0.800000,
-0.603843,-0.796157,-0.639018,-0.796157,-0.711114,-0.766294,-0.766294,-0.711114,-0.796157,-0.639018,-0.796157,-0.603843,-0.800000,-0.600000,-0.800000,0.600000,-0.796157,0.603843,-0.796157,0.639018,-0.766294,0.711114,-0.711114,0.766294,-0.639018,0.796157,-0.603843,0.796157,-0.600000,0.800000,0.000000,0.800000,0.000000,0.796148,0.000000,0.796148,$1*%
G04 Aperture macros list end*
%ADD10C,2.100000*%
%ADD11RoundRect,0.250000X-0.262500X-0.450000X0.262500X-0.450000X0.262500X0.450000X-0.262500X0.450000X0*%
%ADD12RoundRect,0.250000X-0.250000X-0.475000X0.250000X-0.475000X0.250000X0.475000X-0.250000X0.475000X0*%
%ADD13C,2.200000*%
%ADD14C,1.850000*%
%ADD15FreePoly0,270.000000*%
%ADD16RoundRect,0.200000X-0.600000X0.600000X-0.600000X-0.600000X0.600000X-0.600000X0.600000X0.600000X0*%
%ADD17RoundRect,0.800000X-0.000010X0.800000X-0.000010X-0.800000X0.000010X-0.800000X0.000010X0.800000X0*%
%ADD18C,1.600000*%
%ADD19FreePoly1,270.000000*%
%ADD20FreePoly2,270.000000*%
%ADD21FreePoly3,270.000000*%
%ADD22RoundRect,0.500000X-0.500000X-0.500000X0.500000X-0.500000X0.500000X0.500000X-0.500000X0.500000X0*%
%ADD23C,0.650000*%
%ADD24RoundRect,0.150000X-0.150000X-0.425000X0.150000X-0.425000X0.150000X0.425000X-0.150000X0.425000X0*%
%ADD25RoundRect,0.075000X-0.075000X-0.500000X0.075000X-0.500000X0.075000X0.500000X-0.075000X0.500000X0*%
%ADD26O,1.000000X2.100000*%
%ADD27O,1.000000X1.800000*%
%ADD28R,1.700000X1.700000*%
%ADD29C,1.700000*%
G04 APERTURE END LIST*
D10*
%TO.C,REF\u002A\u002A*%
X93000000Y-91400000D03*
%TD*%
%TO.C,REF\u002A\u002A*%
X93000000Y-80000000D03*
%TD*%
%TO.C,REF\u002A\u002A*%
X140000000Y-80000000D03*
%TD*%
%TO.C,REF\u002A\u002A*%
X140000000Y-91400000D03*
%TD*%
D11*
%TO.C,R3*%
X127592500Y-100775000D03*
X129417500Y-100775000D03*
%TD*%
%TO.C,R5*%
X109500000Y-115350000D03*
X107675000Y-115350000D03*
%TD*%
%TO.C,R4*%
X109500000Y-110550000D03*
X107675000Y-110550000D03*
%TD*%
D12*
%TO.C,C1*%
X144700000Y-94850000D03*
X146600000Y-94850000D03*
%TD*%
D13*
%TO.C,A1*%
X140570000Y-83015000D03*
D14*
X137540000Y-83315000D03*
X137540000Y-88165000D03*
D13*
X140570000Y-88465000D03*
D15*
X140700000Y-76050000D03*
D16*
X140700000Y-76850000D03*
D17*
X138160000Y-76050000D03*
D18*
X138160000Y-76850000D03*
D19*
X135620000Y-76050000D03*
D20*
X135620000Y-76850000D03*
D17*
X133080000Y-76050000D03*
D18*
X133080000Y-76850000D03*
D17*
X130540000Y-76050000D03*
D18*
X130540000Y-76850000D03*
D17*
X128000000Y-76050000D03*
D18*
X128000000Y-76850000D03*
D17*
X125460000Y-76050000D03*
D18*
X125460000Y-76850000D03*
D19*
X122920000Y-76050000D03*
D20*
X122920000Y-76850000D03*
D17*
X120380000Y-76050000D03*
D18*
X120380000Y-76850000D03*
D17*
X117840000Y-76050000D03*
D18*
X117840000Y-76850000D03*
D17*
X115300000Y-76050000D03*
D18*
X115300000Y-76850000D03*
D17*
X112760000Y-76050000D03*
D18*
X112760000Y-76850000D03*
D19*
X110220000Y-76050000D03*
D20*
X110220000Y-76850000D03*
D17*
X107680000Y-76050000D03*
D18*
X107680000Y-76850000D03*
D17*
X105140000Y-76050000D03*
D18*
X105140000Y-76850000D03*
D17*
X102600000Y-76050000D03*
D18*
X102600000Y-76850000D03*
D17*
X100060000Y-76050000D03*
D18*
X100060000Y-76850000D03*
D19*
X97520000Y-76050000D03*
D20*
X97520000Y-76850000D03*
D17*
X94980000Y-76050000D03*
D18*
X94980000Y-76850000D03*
D17*
X92440000Y-76050000D03*
D18*
X92440000Y-76850000D03*
X92440000Y-94630000D03*
D17*
X92440000Y-95430000D03*
D18*
X94980000Y-94630000D03*
D17*
X94980000Y-95430000D03*
D21*
X97520000Y-94630000D03*
D15*
X97520000Y-95430000D03*
D18*
X100060000Y-94630000D03*
D17*
X100060000Y-95430000D03*
D18*
X102600000Y-94630000D03*
D17*
X102600000Y-95430000D03*
D18*
X105140000Y-94630000D03*
D17*
X105140000Y-95430000D03*
D18*
X107680000Y-94630000D03*
D17*
X107680000Y-95430000D03*
D21*
X110220000Y-94630000D03*
D15*
X110220000Y-95430000D03*
D18*
X112760000Y-94630000D03*
D17*
X112760000Y-95430000D03*
D18*
X115300000Y-94630000D03*
D17*
X115300000Y-95430000D03*
D18*
X117840000Y-94630000D03*
D17*
X117840000Y-95430000D03*
D18*
X120380000Y-94630000D03*
D17*
X120380000Y-95430000D03*
D21*
X122920000Y-94630000D03*
D15*
X122920000Y-95430000D03*
D18*
X125460000Y-94630000D03*
D17*
X125460000Y-95430000D03*
D18*
X128000000Y-94630000D03*
D17*
X128000000Y-95430000D03*
D18*
X130540000Y-94630000D03*
D17*
X130540000Y-95430000D03*
D18*
X133080000Y-94630000D03*
D17*
X133080000Y-95430000D03*
D21*
X135620000Y-94630000D03*
D15*
X135620000Y-95430000D03*
D18*
X138160000Y-94630000D03*
D17*
X138160000Y-95430000D03*
D18*
X140700000Y-94630000D03*
D17*
X140700000Y-95430000D03*
%TD*%
D22*
%TO.C,SW1*%
X135700000Y-114455000D03*
X141700000Y-114455000D03*
%TD*%
D11*
%TO.C,R2*%
X113287500Y-115955000D03*
X115112500Y-115955000D03*
%TD*%
D23*
%TO.C,J2*%
X121810000Y-112995000D03*
X127590000Y-112995000D03*
D24*
X121500000Y-111920000D03*
X122300000Y-111920000D03*
D25*
X123450000Y-111920000D03*
X124450000Y-111920000D03*
X124950000Y-111920000D03*
X125950000Y-111920000D03*
D24*
X127100000Y-111920000D03*
X127900000Y-111920000D03*
X127900000Y-111920000D03*
X127100000Y-111920000D03*
D25*
X126450000Y-111920000D03*
X125450000Y-111920000D03*
X123950000Y-111920000D03*
X122950000Y-111920000D03*
D24*
X122300000Y-111920000D03*
X121500000Y-111920000D03*
D26*
X120380000Y-112495000D03*
D27*
X120380000Y-116675000D03*
D26*
X129020000Y-112495000D03*
D27*
X129020000Y-116675000D03*
%TD*%
D12*
%TO.C,C2*%
X150700000Y-94850000D03*
X152600000Y-94850000D03*
%TD*%
D28*
%TO.C,J1*%
X98020000Y-100950000D03*
D29*
X100560000Y-100950000D03*
X103100000Y-100950000D03*
X105640000Y-100950000D03*
X108180000Y-100950000D03*
X110720000Y-100950000D03*
X113260000Y-100950000D03*
X115800000Y-100950000D03*
%TD*%
D11*
%TO.C,R1*%
X113375000Y-109955000D03*
X115200000Y-109955000D03*
%TD*%
M02*
