%TF.GenerationSoftware,KiCad,Pcbnew,10.0.0*%
%TF.CreationDate,2026-04-18T15:30:32+05:00*%
%TF.ProjectId,real PCB,7265616c-2050-4434-922e-6b696361645f,rev?*%
%TF.SameCoordinates,Original*%
%TF.FileFunction,Soldermask,Bot*%
%TF.FilePolarity,Negative*%
%FSLAX46Y46*%
G04 Gerber Fmt 4.6, Leading zero omitted, Abs format (unit mm)*
G04 Created by KiCad (PCBNEW 10.0.0) date 2026-04-18 15:30:32*
%MOMM*%
%LPD*%
G01*
G04 APERTURE LIST*
G04 Aperture macros list*
%AMRoundRect*
0 Rectangle with rounded corners*
0 $1 Rounding radius*
0 $2 $3 $4 $5 $6 $7 $8 $9 X,Y pos of 4 corners*
0 Add a 4 corners polygon primitive as box body*
4,1,4,$2,$3,$4,$5,$6,$7,$8,$9,$2,$3,0*
0 Add four circle primitives for the rounded corners*
1,1,$1+$1,$2,$3*
1,1,$1+$1,$4,$5*
1,1,$1+$1,$6,$7*
1,1,$1+$1,$8,$9*
0 Add four rect primitives between the rounded corners*
20,1,$1+$1,$2,$3,$4,$5,0*
20,1,$1+$1,$4,$5,$6,$7,0*
20,1,$1+$1,$6,$7,$8,$9,0*
20,1,$1+$1,$8,$9,$2,$3,0*%
%AMFreePoly0*
4,1,37,0.603843,0.796157,0.639018,0.796157,0.711114,0.766294,0.766294,0.711114,0.796157,0.639018,0.796157,0.603843,0.800000,0.600000,0.800000,-0.600000,0.796157,-0.603843,0.796157,-0.639018,0.766294,-0.711114,0.711114,-0.766294,0.639018,-0.796157,0.603843,-0.796157,0.600000,-0.800000,0.000000,-0.800000,0.000000,-0.796148,-0.078414,-0.796148,-0.232228,-0.765552,-0.377117,-0.705537,
-0.507515,-0.618408,-0.618408,-0.507515,-0.705537,-0.377117,-0.765552,-0.232228,-0.796148,-0.078414,-0.796148,0.078414,-0.765552,0.232228,-0.705537,0.377117,-0.618408,0.507515,-0.507515,0.618408,-0.377117,0.705537,-0.232228,0.765552,-0.078414,0.796148,0.000000,0.796148,0.000000,0.800000,0.600000,0.800000,0.603843,0.796157,0.603843,0.796157,$1*%
%AMFreePoly1*
4,1,37,0.000000,0.796148,0.078414,0.796148,0.232228,0.765552,0.377117,0.705537,0.507515,0.618408,0.618408,0.507515,0.705537,0.377117,0.765552,0.232228,0.796148,0.078414,0.796148,-0.078414,0.765552,-0.232228,0.705537,-0.377117,0.618408,-0.507515,0.507515,-0.618408,0.377117,-0.705537,0.232228,-0.765552,0.078414,-0.796148,0.000000,-0.796148,0.000000,-0.800000,-0.600000,-0.800000,
-0.603843,-0.796157,-0.639018,-0.796157,-0.711114,-0.766294,-0.766294,-0.711114,-0.796157,-0.639018,-0.796157,-0.603843,-0.800000,-0.600000,-0.800000,0.600000,-0.796157,0.603843,-0.796157,0.639018,-0.766294,0.711114,-0.711114,0.766294,-0.639018,0.796157,-0.603843,0.796157,-0.600000,0.800000,0.000000,0.800000,0.000000,0.796148,0.000000,0.796148,$1*%
G04 Aperture macros list end*
%ADD10C,2.100000*%
%ADD11C,2.200000*%
%ADD12C,1.850000*%
%ADD13RoundRect,0.200000X-0.600000X0.600000X-0.600000X-0.600000X0.600000X-0.600000X0.600000X0.600000X0*%
%ADD14C,1.600000*%
%ADD15FreePoly0,270.000000*%
%ADD16FreePoly1,270.000000*%
%ADD17C,0.650000*%
%ADD18O,1.000000X2.100000*%
%ADD19O,1.000000X1.800000*%
%ADD20R,1.700000X1.700000*%
%ADD21C,1.700000*%
G04 APERTURE END LIST*
D10*
%TO.C,REF\u002A\u002A*%
X93000000Y-91400000D03*
%TD*%
%TO.C,REF\u002A\u002A*%
X93000000Y-80000000D03*
%TD*%
%TO.C,REF\u002A\u002A*%
X140000000Y-80000000D03*
%TD*%
%TO.C,REF\u002A\u002A*%
X140000000Y-91400000D03*
%TD*%
D11*
%TO.C,A1*%
X140570000Y-83015000D03*
D12*
X137540000Y-83315000D03*
X137540000Y-88165000D03*
D11*
X140570000Y-88465000D03*
D13*
X140700000Y-76850000D03*
D14*
X138160000Y-76850000D03*
D15*
X135620000Y-76850000D03*
D14*
X133080000Y-76850000D03*
X130540000Y-76850000D03*
X128000000Y-76850000D03*
X125460000Y-76850000D03*
D15*
X122920000Y-76850000D03*
D14*
X120380000Y-76850000D03*
X117840000Y-76850000D03*
X115300000Y-76850000D03*
X112760000Y-76850000D03*
D15*
X110220000Y-76850000D03*
D14*
X107680000Y-76850000D03*
X105140000Y-76850000D03*
X102600000Y-76850000D03*
X100060000Y-76850000D03*
D15*
X97520000Y-76850000D03*
D14*
X94980000Y-76850000D03*
X92440000Y-76850000D03*
X92440000Y-94630000D03*
X94980000Y-94630000D03*
D16*
X97520000Y-94630000D03*
D14*
X100060000Y-94630000D03*
X102600000Y-94630000D03*
X105140000Y-94630000D03*
X107680000Y-94630000D03*
D16*
X110220000Y-94630000D03*
D14*
X112760000Y-94630000D03*
X115300000Y-94630000D03*
X117840000Y-94630000D03*
X120380000Y-94630000D03*
D16*
X122920000Y-94630000D03*
D14*
X125460000Y-94630000D03*
X128000000Y-94630000D03*
X130540000Y-94630000D03*
X133080000Y-94630000D03*
D16*
X135620000Y-94630000D03*
D14*
X138160000Y-94630000D03*
X140700000Y-94630000D03*
%TD*%
D17*
%TO.C,J2*%
X121810000Y-112995000D03*
X127590000Y-112995000D03*
D18*
X120380000Y-112495000D03*
D19*
X120380000Y-116675000D03*
D18*
X129020000Y-112495000D03*
D19*
X129020000Y-116675000D03*
%TD*%
D20*
%TO.C,J1*%
X98020000Y-100950000D03*
D21*
X100560000Y-100950000D03*
X103100000Y-100950000D03*
X105640000Y-100950000D03*
X108180000Y-100950000D03*
X110720000Y-100950000D03*
X113260000Y-100950000D03*
X115800000Y-100950000D03*
%TD*%
M02*
